<svg width="61" height="61" viewBox="0 0 61 61" fill="none" xmlns="http://www.w3.org/2000/svg">
<path d="M30.548 60.6354C29.6453 60.6354 28.7427 60.6354 27.8401 60.6354C11.2923 59.1279 -0.742523 44.354 0.761785 27.7711C1.96523 13.2988 13.3982 1.84147 27.84 0.635437C29.0435 0.635437 30.2469 1.23845 30.8487 2.14297C31.4504 3.0475 31.4504 4.55504 30.5478 5.45956C27.5391 9.37916 26.6365 14.2033 27.2383 19.0274C27.84 23.8515 30.5479 28.0726 34.4592 30.7862C40.7775 35.6103 49.5027 35.6103 55.8209 30.7862C56.7235 30.1832 57.927 29.8817 59.1305 30.4847C60.0331 31.0877 60.6348 32.2937 60.6348 33.4998C60.0331 41.6405 56.1218 48.8766 49.8036 54.0023C44.0871 58.2234 37.468 60.6354 30.548 60.6354ZM22.1235 7.57011C13.3983 10.5852 7.38089 18.4244 6.47831 28.0726C5.27486 41.339 14.9027 53.0977 28.141 54.3038C34.4592 54.9068 40.7775 53.0977 45.5914 48.8766C48.901 46.1631 51.3079 42.545 52.8122 38.6254C45.2905 41.339 36.8662 40.1329 30.247 35.3088C25.1322 31.3892 21.8227 25.9621 20.6192 19.6304C20.3183 15.4093 20.92 11.4897 22.1235 7.57011Z" fill="#222222"/>
</svg>
