<svg width="60" height="60" viewBox="0 0 60 60" fill="none" xmlns="http://www.w3.org/2000/svg">
<path d="M14.985 30C14.985 38.283 21.723 45.021 30.006 45.021C38.289 45.021 45.027 38.283 45.027 30C45.027 21.717 38.289 14.979 30.006 14.979C21.723 14.979 14.985 21.717 14.985 30ZM30.006 20.979C34.98 20.979 39.027 25.026 39.027 30C39.027 34.974 34.98 39.021 30.006 39.021C25.032 39.021 20.985 34.974 20.985 30C20.985 25.026 25.032 20.979 30.006 20.979ZM27 51L33 51L33 60L27 60L27 51ZM27 -3.27989e-06L33 -4.00876e-06L33 9L27 9L27 -3.27989e-06ZM-3.27989e-06 27L9 27L9 33L-4.00876e-06 33L-3.27989e-06 27ZM51 27L60 27L60 33L51 33L51 27Z" fill="white"/>
<path d="M6.66313 49.0901L13.0252 42.7243L17.2691 46.9656L10.907 53.3315L6.66313 49.0901Z" fill="white"/>
<path d="M42.7267 13.0307L49.0927 6.66455L53.3354 10.9071L46.9694 17.2733L42.7267 13.0307Z" fill="white"/>
<path d="M13.0312 17.2757L6.66913 10.9099L10.913 6.66851L17.2751 13.0344L13.0312 17.2757Z" fill="white"/>
<path d="M53.3333 49.0906L49.0907 53.3333L42.7246 46.9673L46.9671 42.7246L53.3333 49.0906Z" fill="white"/>
</svg>
